<svg width="24" height="24" viewBox="0 0 24 24" fill="none" xmlns="http://www.w3.org/2000/svg">
<path d="M7.5 5L7.50071 5C8.22268 4.99949 8.93415 5.17295 9.57488 5.5057C10.2156 5.83845 10.7667 6.32069 11.1816 6.91159C11.3686 7.17808 11.6738 7.3368 11.9994 7.337C12.325 7.33721 12.6303 7.17887 12.8177 6.91262C13.6334 5.75391 14.9789 5 16.5 5C18.9852 5 21 7.01479 21 9.5C21 11.8659 19.586 14.2506 17.6019 16.2543C15.7555 18.119 13.5631 19.502 12 20.101C10.4369 19.502 8.24453 18.119 6.39807 16.2543C4.41404 14.2506 3 11.8659 3 9.5C3 7.01479 5.01478 5 7.5 5Z" stroke="#DB422E" stroke-width="2" stroke-linecap="round" stroke-linejoin="round"/>
</svg>
