<svg width="200" height="36" viewBox="0 0 200 36" fill="none" xmlns="http://www.w3.org/2000/svg">
<path d="M16.9326 24.3482H5.52149L3.15952 29.7163H0L9.72395 8.24388H12.7608L22.5154 29.7163H19.2945L16.9326 24.3482ZM15.8589 21.8942L11.227 11.3727L6.59511 21.8942H15.8589Z" fill="#DB422E"/>
<path d="M25.2891 6.95554H28.2339V29.7163H25.2891V6.95554Z" fill="#DB422E"/>
<path d="M40.9424 29.9004C39.2859 29.9004 37.8033 29.5425 36.4945 28.8268C35.2062 28.111 34.1939 27.1294 33.4577 25.882C32.7215 24.6141 32.3534 23.1826 32.3534 21.5875C32.3534 19.9924 32.7215 18.5711 33.4577 17.3237C34.1939 16.0558 35.2062 15.0742 36.4945 14.3789C37.8033 13.6631 39.2859 13.3052 40.9424 13.3052C42.4148 13.3052 43.7236 13.6018 44.8688 14.1948C46.0344 14.7879 46.9342 15.6468 47.5682 16.7715L45.3289 18.2132C44.8176 17.4361 44.1837 16.8533 43.4271 16.4648C42.6704 16.0762 41.832 15.8819 40.9117 15.8819C39.8483 15.8819 38.8872 16.1171 38.0283 16.5875C37.1898 17.0578 36.5252 17.7327 36.0344 18.612C35.5641 19.4709 35.3289 20.4627 35.3289 21.5875C35.3289 22.7327 35.5641 23.7449 36.0344 24.6243C36.5252 25.4832 37.1898 26.1478 38.0283 26.6182C38.8872 27.0885 39.8483 27.3237 40.9117 27.3237C41.832 27.3237 42.6704 27.1294 43.4271 26.7409C44.1837 26.3523 44.8176 25.7695 45.3289 24.9924L47.5682 26.4034C46.9342 27.5282 46.0344 28.3973 44.8688 29.0108C43.7236 29.6038 42.4148 29.9004 40.9424 29.9004Z" fill="#DB422E"/>
<path d="M58.1043 29.9004C56.4887 29.9004 55.0368 29.5425 53.7484 28.8268C52.4601 28.111 51.4478 27.1294 50.7116 25.882C49.9959 24.6141 49.638 23.1826 49.638 21.5875C49.638 19.9924 49.9959 18.5711 50.7116 17.3237C51.4478 16.0558 52.4601 15.0742 53.7484 14.3789C55.0368 13.6631 56.4887 13.3052 58.1043 13.3052C59.7198 13.3052 61.1615 13.6631 62.4294 14.3789C63.7178 15.0742 64.7198 16.0558 65.4356 17.3237C66.1718 18.5711 66.5399 19.9924 66.5399 21.5875C66.5399 23.1826 66.1718 24.6141 65.4356 25.882C64.7198 27.1294 63.7178 28.111 62.4294 28.8268C61.1615 29.5425 59.7198 29.9004 58.1043 29.9004ZM58.1043 27.3237C59.1472 27.3237 60.0777 27.0885 60.8957 26.6182C61.7342 26.1274 62.3885 25.4525 62.8589 24.5936C63.3292 23.7143 63.5644 22.7122 63.5644 21.5875C63.5644 20.4627 63.3292 19.4709 62.8589 18.612C62.3885 17.7327 61.7342 17.0578 60.8957 16.5875C60.0777 16.1171 59.1472 15.8819 58.1043 15.8819C57.0613 15.8819 56.1206 16.1171 55.2822 16.5875C54.4642 17.0578 53.8098 17.7327 53.319 18.612C52.8486 19.4709 52.6135 20.4627 52.6135 21.5875C52.6135 22.7122 52.8486 23.7143 53.319 24.5936C53.8098 25.4525 54.4642 26.1274 55.2822 26.6182C56.1206 27.0885 57.0613 27.3237 58.1043 27.3237Z" fill="#DB422E"/>
<path d="M79.2935 13.3052C81.3589 13.3052 82.9949 13.9085 84.2015 15.1151C85.4285 16.3012 86.042 18.0496 86.042 20.3605V29.7163H83.0972V20.6979C83.0972 19.1233 82.7188 17.9372 81.9622 17.1396C81.2055 16.3421 80.1217 15.9433 78.7106 15.9433C77.1155 15.9433 75.8579 16.4136 74.9376 17.3543C74.0174 18.2746 73.5573 19.6038 73.5573 21.3421V29.7163H70.6125V6.95554H73.5573V15.7592C74.1708 14.9821 74.9683 14.3789 75.9499 13.9494C76.9519 13.52 78.0665 13.3052 79.2935 13.3052Z" fill="#DB422E"/>
<path d="M98.5449 29.9004C96.9293 29.9004 95.4774 29.5425 94.189 28.8268C92.9007 28.111 91.8884 27.1294 91.1522 25.882C90.4364 24.6141 90.0786 23.1826 90.0786 21.5875C90.0786 19.9924 90.4364 18.5711 91.1522 17.3237C91.8884 16.0558 92.9007 15.0742 94.189 14.3789C95.4774 13.6631 96.9293 13.3052 98.5449 13.3052C100.16 13.3052 101.602 13.6631 102.87 14.3789C104.158 15.0742 105.16 16.0558 105.876 17.3237C106.612 18.5711 106.98 19.9924 106.98 21.5875C106.98 23.1826 106.612 24.6141 105.876 25.882C105.16 27.1294 104.158 28.111 102.87 28.8268C101.602 29.5425 100.16 29.9004 98.5449 29.9004ZM98.5449 27.3237C99.5878 27.3237 100.518 27.0885 101.336 26.6182C102.175 26.1274 102.829 25.4525 103.299 24.5936C103.77 23.7143 104.005 22.7122 104.005 21.5875C104.005 20.4627 103.77 19.4709 103.299 18.612C102.829 17.7327 102.175 17.0578 101.336 16.5875C100.518 16.1171 99.5878 15.8819 98.5449 15.8819C97.5019 15.8819 96.5612 16.1171 95.7228 16.5875C94.9048 17.0578 94.2504 17.7327 93.7596 18.612C93.2892 19.4709 93.054 20.4627 93.054 21.5875C93.054 22.7122 93.2892 23.7143 93.7596 24.5936C94.2504 25.4525 94.9048 26.1274 95.7228 26.6182C96.5612 27.0885 97.5019 27.3237 98.5449 27.3237Z" fill="#DB422E"/>
<path d="M141.639 24.3482H130.228L127.866 29.7163H124.707L134.431 8.24388H137.467L147.222 29.7163H144.001L141.639 24.3482ZM140.566 21.8942L135.934 11.3727L131.302 21.8942H140.566Z" fill="#DB422E"/>
<path d="M149.996 6.95554H152.941V29.7163H149.996V6.95554Z" fill="#DB422E"/>
<path d="M158.563 6.95554H161.508V29.7163H158.563V6.95554Z" fill="#DB422E"/>
<path d="M181.824 21.6795C181.824 21.9044 181.803 22.201 181.763 22.5691H168.572C168.756 24.0006 169.38 25.156 170.444 26.0353C171.527 26.8942 172.867 27.3237 174.462 27.3237C176.405 27.3237 177.969 26.6693 179.155 25.3605L180.781 27.2623C180.045 28.1212 179.124 28.7756 178.02 29.2255C176.936 29.6754 175.72 29.9004 174.37 29.9004C172.652 29.9004 171.129 29.5527 169.799 28.8574C168.47 28.1417 167.437 27.1499 166.701 25.882C165.985 24.6141 165.628 23.1826 165.628 21.5875C165.628 20.0128 165.975 18.5916 166.671 17.3237C167.386 16.0558 168.358 15.0742 169.585 14.3789C170.832 13.6631 172.233 13.3052 173.787 13.3052C175.341 13.3052 176.722 13.6631 177.928 14.3789C179.155 15.0742 180.106 16.0558 180.781 17.3237C181.476 18.5916 181.824 20.0435 181.824 21.6795ZM173.787 15.7899C172.376 15.7899 171.19 16.2194 170.229 17.0783C169.288 17.9372 168.736 19.0619 168.572 20.4525H179.002C178.838 19.0824 178.276 17.9678 177.315 17.1089C176.374 16.2296 175.198 15.7899 173.787 15.7899Z" fill="#DB422E"/>
<path d="M200 13.4586L192.117 31.3421C191.421 32.9985 190.603 34.1642 189.663 34.839C188.742 35.5139 187.628 35.8513 186.319 35.8513C185.521 35.8513 184.744 35.7184 183.988 35.4525C183.251 35.2071 182.638 34.839 182.147 34.3482L183.405 32.1396C184.243 32.9372 185.215 33.336 186.319 33.336C187.035 33.336 187.628 33.1417 188.098 32.7531C188.589 32.385 189.029 31.7409 189.417 30.8206L189.939 29.6856L182.761 13.4586H185.828L191.503 26.4648L197.117 13.4586H200Z" fill="#DB422E"/>
<path fill-rule="evenodd" clip-rule="evenodd" d="M118.127 29.7163H106.564C106.701 29.5731 106.913 29.441 107.097 29.3801C110.649 27.981 110.828 26.7367 110.828 26.7367L110.808 14.8246C110.702 14.3941 110.225 14.1519 110.225 14.1519C101.583 10.8696 105.93 0 105.93 0H118.761C118.761 0 123.109 10.8696 114.466 14.1519C114.466 14.1519 113.989 14.3941 113.883 14.8246L113.863 26.7367C113.863 26.7367 114.042 27.981 117.595 29.3801C117.779 29.441 117.99 29.5731 118.127 29.7163Z" fill="#DB422E"/>
</svg>
